<?xml version="1.0" encoding="utf-8"?>
<!-- Generator: Adobe Illustrator 23.0.1, SVG Export Plug-In . SVG Version: 6.00 Build 0)  -->
<svg version="1.1" id="lombik" xmlns="http://www.w3.org/2000/svg" xmlns:xlink="http://www.w3.org/1999/xlink" x="0px" y="0px"
	 viewBox="0 0 1000 1000" style="enable-background:new 0 0 1000 1000;" xml:space="preserve">
<style type="text/css">
	.st0{fill:none;stroke:#000000;stroke-width:60;stroke-miterlimit:10;}
	.st1{fill:none;stroke:#000000;stroke-width:25;stroke-miterlimit:10;}
</style>
<path class="st0" d="M625.53,48.32l-2.56,276.19c-0.12,13.35,3.59,26.46,10.71,37.76l249.96,396.85c4.36,6.92,7.68,14.44,9.74,22.36
	c6.63,25.52,15.17,81.64-20.66,126.55c-12.32,15.45-26.72,25.58-39.31,32.22c-11.4,6.01-24.15,8.98-37.04,8.98l-258.74,0h-71.68
	l-258.74,0c-12.89,0-25.64-2.97-37.04-8.98c-12.59-6.64-26.98-16.77-39.31-32.22C95.04,863.12,103.59,807,110.22,781.48
	c2.05-7.91,5.38-15.44,9.74-22.36l249.96-396.85c7.12-11.3,10.83-24.41,10.71-37.76l-2.56-276.19"/>
<line class="st0" x1="621.41" y1="60.5" x2="659.87" y2="60.5"/>
<line class="st0" x1="344.46" y1="60.5" x2="383.37" y2="60.5"/>
<line class="st1" x1="379.25" y1="100.51" x2="494.61" y2="100.51"/>
<line class="st1" x1="377.42" y1="214.04" x2="473.55" y2="214.04"/>
<line class="st1" x1="381.08" y1="306.51" x2="490.95" y2="306.51"/>
<line class="st1" x1="338.05" y1="414.54" x2="457.99" y2="414.54"/>
</svg>
