<?xml version="1.0"?>
<!DOCTYPE svg PUBLIC '-//W3C//DTD SVG 1.0//EN' 'http://www.w3.org/TR/2001/REC-SVG-20010904/DTD/svg10.dtd'>
<svg xmlns="http://www.w3.org/2000/svg" width="480" height="500" viewBox="-5 103 240 250">
  <!--Unicode Character 'VULGAR FRACTION ONE HALF' (U+00BD)-->
  <path d="M137.5312 335.1094 L137.5312 317.9531 Q146.8125 301.7812 163.125 287.1562 L172.9688 278.4375 Q183.7969 268.7344 189.2812 259.7344 Q194.7656 250.7344 194.7656 242.2969 Q194.7656 231.8906 189.0703 226.6172 Q183.375 221.3438 171.9844 221.3438 Q158.4844 221.3438 140.625 231.0469 L140.625 214.5938 Q158.3438 207.1406 176.0625 207.1406 Q194.3438 207.1406 205.5938 216.6328 Q216.8438 226.125 216.8438 241.5938 Q216.8438 251.4375 210.375 261.7031 Q203.9062 271.9688 191.1094 282.5156 L183.6562 288.5625 Q164.9531 303.8906 161.7188 317.9531 L216.4219 317.9531 L216.4219 335.1094 L137.5312 335.1094 ZM13.9219 340.3125 L166.9219 121.7812 L185.9062 121.7812 L33.0469 340.3125 L13.9219 340.3125 ZM38.25 251.8594 L38.25 145.125 L10.4062 152.0156 L10.4062 135.9844 L59.0625 123.75 L59.0625 251.8594 L38.25 251.8594 Z"/></svg>
