<?xml version="1.0" encoding="utf-8"?>
<!-- Generator: Adobe Illustrator 23.0.1, SVG Export Plug-In . SVG Version: 6.00 Build 0)  -->
<svg version="1.1" xmlns="http://www.w3.org/2000/svg" xmlns:xlink="http://www.w3.org/1999/xlink" x="0px" y="0px"
	 viewBox="0 0 500 500" style="enable-background:new 0 0 500 500;" xml:space="preserve">
<style type="text/css">
	.st0{display:none;}
	.st1{display:inline;fill:#808080;}
	.st2{fill:#FFFFFF;}
	.st3{fill:url(#SVGID_1_);}
	.st4{fill:url(#SVGID_2_);}
</style>
<g id="background" class="st0">
	<rect x="0.5" y="0.5" class="st1" width="500" height="500"/>
</g>
<g id="white_bg">
	<path class="st2" d="M500,500H0V0h497.94c1.14,0,2.06,0.92,2.06,2.06V500z"/>
</g>
<g id="logo">
	<g>
		<linearGradient id="SVGID_1_" gradientUnits="userSpaceOnUse" x1="323.0903" y1="416.9173" x2="176.9079" y2="270.7348">
			<stop  offset="0" style="stop-color:#13547A"/>
			<stop  offset="1" style="stop-color:#62A39C"/>
		</linearGradient>
		<path class="st3" d="M192.33,255.84l-48.86,79.85c-0.77,1.26-1.39,2.42-1.9,3.55c-7.65,17.02-5.98,35.29,4.26,46.55
			c1.7,1.87,3.63,3.53,5.74,4.93c4.99,3.33,10.96,5.09,17.24,5.09h162.38c6.27,0,12.23-1.76,17.23-5.09
			c2.11-1.41,4.05-3.07,5.75-4.94c10.24-11.26,11.91-29.53,4.25-46.57c-0.51-1.13-1.13-2.28-1.89-3.53l-48.86-79.85
			c-2.37-3.88-6.44-6.2-10.86-6.2h-93.61C198.77,249.64,194.71,251.96,192.33,255.84z M295.58,265.28l48.21,78.79
			c0.42,0.68,0.74,1.27,0.97,1.78c4.95,11,4.32,22.74-1.56,29.21c-0.86,0.94-1.84,1.79-2.92,2.5c-2.57,1.71-5.71,2.61-9.09,2.61
			H168.81c-3.38,0-6.52-0.9-9.08-2.61c-1.08-0.72-2.07-1.56-2.92-2.5c-5.88-6.47-6.51-18.21-1.57-29.21
			c0.23-0.52,0.54-1.09,0.97-1.78l48.21-78.79H295.58z"/>
		<linearGradient id="SVGID_2_" gradientUnits="userSpaceOnUse" x1="385.4556" y1="421.9661" x2="114.6079" y2="151.1184">
			<stop  offset="0" style="stop-color:#13547A"/>
			<stop  offset="1" style="stop-color:#62A39C"/>
		</linearGradient>
		<path class="st4" d="M401.02,349.36c-0.67-1.48-1.49-3-2.48-4.62l-55.25-91.01l-39.98-66.23c-1.77-2.93-2.69-6.32-2.66-9.8
			l0.77-87.05h7.97V75h-16.84v0.07l-6.08-0.06l-0.91,102.53c-0.06,6.46,1.66,12.77,4.96,18.24l24.81,41.1l-0.06,0.04l15.15,24.95
			l49.04,81.23l0.2-0.13l6.14,10.11c0.66,1.08,1.18,2.03,1.57,2.89c7.57,16.82,6.45,34.95-2.78,45.1c-1.39,1.53-2.99,2.9-4.74,4.06
			c-4.15,2.76-9.2,4.22-14.6,4.22H134.76c-5.41,0-10.46-1.46-14.6-4.22c-1.75-1.17-3.35-2.53-4.74-4.06
			c-9.23-10.15-10.35-28.28-2.79-45.09c0.39-0.87,0.89-1.79,1.58-2.92l6.12-10.08l0.2,0.13l49.39-81.81l14.8-24.37l-0.06-0.04
			l24.81-41.1c3.09-5.12,4.77-10.99,4.93-17.03h31.74v-15.64H214.3l-0.17-18.78h18.89v-15.64H214l-0.16-17.49h33.6V95.56H213.7
			l-0.18-20.55l-5.95,0.06V75h-16.84v15.64h7.85l0.77,87.05c0.03,3.48-0.89,6.87-2.66,9.8l-39.6,65.61l-55.61,91.61
			c-1.02,1.66-1.84,3.19-2.5,4.66c-10.31,22.93-8.16,47.43,5.48,62.44c2.24,2.45,4.78,4.64,7.56,6.49c6.58,4.38,14.45,6.7,22.76,6.7
			h230.47c8.29,0,16.16-2.32,22.75-6.7c2.78-1.85,5.33-4.04,7.56-6.49C409.19,396.81,411.34,372.3,401.02,349.36z"/>
	</g>
</g>
</svg>
