<svg id="Réteg_1" data-name="Réteg 1" xmlns="http://www.w3.org/2000/svg" viewBox="0 0 510 395.6"><defs><style>.cls-1{stroke:#000;stroke-miterlimit:10;stroke-width:30px;}.cls-2{fill:#fff;}</style></defs><path class="cls-1" d="M269.2,441.1H448.9a7.2,7.2,0,0,0,7.2-7.2V348.2a7.2,7.2,0,0,0-7.2-7.2H63.2a7.2,7.2,0,0,0-7.1,7.2v85.7a7.1,7.1,0,0,0,7.1,7.2h206Z" transform="translate(-1 -60.5)"/><path class="cls-2" d="M268.5,433.6H439.2c3.7,0,6.8-2.8,6.8-6.1V354.7a6.2,6.2,0,0,0-2-4.4,7,7,0,0,0-4.8-1.7H72.8c-3.7,0-6.8,2.7-6.8,6.1v72.8c0,3.3,3.1,6.1,6.8,6.1H268.5Z" transform="translate(-1 -60.5)"/><path class="cls-1" d="M496,175.2V82.6a7.1,7.1,0,0,0-7.1-7.1H446.2a6.6,6.6,0,0,0-6.7,6.7v28.3a6.7,6.7,0,0,1-6.7,6.7H319.1a6.7,6.7,0,0,0-6.7,6.7v29a6.7,6.7,0,0,1-6.7,6.7H121.6a6.7,6.7,0,0,1-6.7-6.7v-29a6.7,6.7,0,0,0-6.7-6.7h-29a6.7,6.7,0,0,1-6.7-6.7V82.2a6.7,6.7,0,0,0-6.7-6.7H22.7A6.7,6.7,0,0,0,16,82.2V294.1a6.7,6.7,0,0,0,6.7,6.7H489.3a6.7,6.7,0,0,0,6.7-6.7V175.2Z" transform="translate(-1 -60.5)"/><path class="cls-2" d="M449.4,119.9a6.7,6.7,0,0,1-6.7,6.8l-36.5-.3H328.4a6.7,6.7,0,0,0-6.7,6.7v29.1a6.7,6.7,0,0,1-6.7,6.7H112.2a6.7,6.7,0,0,1-6.6-6.7l-.2-29.1a6.7,6.7,0,0,0-6.7-6.7H70.1a6.8,6.8,0,0,1-6.8-6.7V91.4a6.9,6.9,0,0,0-6.8-6.7H31.9a6.8,6.8,0,0,0-6.7,6.7V284.8a6.7,6.7,0,0,0,6.7,6.7H480.2a6.7,6.7,0,0,0,6.7-6.7V91.4a6.7,6.7,0,0,0-6.8-6.7H455.5a6.7,6.7,0,0,0-6.7,6.9Z" transform="translate(-1 -60.5)"/></svg>