<svg xmlns="http://www.w3.org/2000/svg">
			<path d="M142.933,326.016V288h16v-48h-96v48h16v38.024L10.101,456.04c-2.072,3.904-3.168,8.312-3.168,12.744
				C6.933,483.792,19.141,496,34.149,496h153.56c15.016,0,27.224-12.208,27.224-27.224c0-4.424-1.096-8.832-3.168-12.736
				L142.933,326.016z M78.933,256h64v16h-64V256z M187.717,480H34.149c-6.184,0-11.216-5.032-11.216-11.216
				c0-1.832,0.456-3.648,1.304-5.256l70.696-133.536V288h32v41.984l70.696,133.536c0.848,1.616,1.304,3.432,1.304,5.264
				C198.933,474.968,193.901,480,187.717,480z"/>
</svg>
